<svg xmlns="http://www.w3.org/2000/svg" viewBox="0 0 800 480">
  <defs>
    <linearGradient id="bg" x1="0%" y1="0%" x2="100%" y2="100%">
      <stop offset="0%" style="stop-color:#050505"/><stop offset="100%" style="stop-color:#0d0d1a"/>
    </linearGradient>
    <filter id="gc"><feGaussianBlur stdDeviation="3" result="b"/><feMerge><feMergeNode in="b"/><feMergeNode in="SourceGraphic"/></feMerge></filter>
  </defs>
  <rect width="800" height="480" fill="url(#bg)"/>
  <g opacity="0.04" stroke="#00ffff" stroke-width="0.5">
    <line x1="0" y1="60" x2="800" y2="60"/><line x1="0" y1="120" x2="800" y2="120"/>
    <line x1="0" y1="180" x2="800" y2="180"/><line x1="0" y1="240" x2="800" y2="240"/>
    <line x1="0" y1="300" x2="800" y2="300"/><line x1="0" y1="360" x2="800" y2="360"/>
    <line x1="80" y1="0" x2="80" y2="480"/><line x1="160" y1="0" x2="160" y2="480"/>
    <line x1="240" y1="0" x2="240" y2="480"/><line x1="320" y1="0" x2="320" y2="480"/>
    <line x1="400" y1="0" x2="400" y2="480"/><line x1="480" y1="0" x2="480" y2="480"/>
    <line x1="560" y1="0" x2="560" y2="480"/><line x1="640" y1="0" x2="640" y2="480"/>
  </g>
  <rect width="800" height="40" fill="#0a0a18"/>
  <rect width="800" height="1" y="40" fill="#00ffff" opacity="0.3"/>
  <text x="20" y="27" font-family="Courier New" font-size="15" font-weight="bold" fill="#00ffff" filter="url(#gc)">&lt;C/&gt;</text>
  <text x="52" y="27" font-family="Courier New" font-size="13" fill="#fff" opacity="0.7">CodeLens</text>
  <rect x="700" y="12" width="85" height="18" rx="3" fill="#00ffff" opacity="0.12" stroke="#00ffff" stroke-width="0.5"/>
  <text x="706" y="25" font-family="Courier New" font-size="10" fill="#00ffff">TypeScript</text>
  <rect x="0" y="40" width="390" height="440" fill="#080812"/>
  <rect x="390" y="40" width="1" height="440" fill="#00ffff" opacity="0.15"/>
  <rect x="0" y="40" width="390" height="28" fill="#0c0c1e"/>
  <circle cx="16" cy="54" r="5" fill="#ff5f57" opacity="0.8"/>
  <circle cx="32" cy="54" r="5" fill="#febc2e" opacity="0.8"/>
  <circle cx="48" cy="54" r="5" fill="#28c840" opacity="0.8"/>
  <text x="70" y="59" font-family="Courier New" font-size="10" fill="#444">editor.ts</text>
  <rect x="0" y="68" width="32" height="412" fill="#06060f"/>
  <text x="8" y="88" font-family="Courier New" font-size="10" fill="#333">1</text>
  <text x="8" y="106" font-family="Courier New" font-size="10" fill="#333">2</text>
  <text x="8" y="124" font-family="Courier New" font-size="10" fill="#333">3</text>
  <text x="8" y="142" font-family="Courier New" font-size="10" fill="#333">4</text>
  <text x="8" y="160" font-family="Courier New" font-size="10" fill="#333">5</text>
  <text x="8" y="178" font-family="Courier New" font-size="10" fill="#333">6</text>
  <text x="40" y="88" font-family="Courier New" font-size="11" fill="#569cd6">async function</text>
  <text x="156" y="88" font-family="Courier New" font-size="11" fill="#dcdcaa"> fetchUser</text>
  <text x="234" y="88" font-family="Courier New" font-size="11" fill="#d4d4d4">(id: </text>
  <text x="264" y="88" font-family="Courier New" font-size="11" fill="#4ec9b0">string</text>
  <text x="308" y="88" font-family="Courier New" font-size="11" fill="#d4d4d4">) {</text>
  <text x="40" y="106" font-family="Courier New" font-size="11" fill="#569cd6">  const</text>
  <text x="82" y="106" font-family="Courier New" font-size="11" fill="#d4d4d4"> res = await fetch(url)</text>
  <rect x="32" y="131" width="358" height="16" fill="#ff2d95" opacity="0.08"/>
  <text x="40" y="142" font-family="Courier New" font-size="11" fill="#569cd6">  if</text>
  <text x="64" y="142" font-family="Courier New" font-size="11" fill="#d4d4d4"> (!res.ok) throw new </text>
  <text x="218" y="142" font-family="Courier New" font-size="11" fill="#4ec9b0">Error</text>
  <text x="40" y="160" font-family="Courier New" font-size="11" fill="#569cd6">  return</text>
  <text x="92" y="160" font-family="Courier New" font-size="11" fill="#dcdcaa"> res.json()</text>
  <text x="40" y="178" font-family="Courier New" font-size="11" fill="#d4d4d4">}</text>
  <rect x="40" y="192" width="7" height="14" fill="#00ffff" opacity="0.8"/>
  <rect x="20" y="430" width="132" height="32" rx="4" fill="#00ffff" opacity="0.15" stroke="#00ffff" stroke-width="1"/>
  <text x="34" y="451" font-family="Courier New" font-size="11" font-weight="bold" fill="#00ffff">&#9654; Review code</text>
  <rect x="391" y="40" width="409" height="440" fill="#06060e"/>
  <rect x="408" y="58" width="375" height="88" rx="6" fill="#0d0a14" stroke="#ff2d95" stroke-width="1" stroke-opacity="0.5"/>
  <rect x="408" y="58" width="4" height="88" rx="2" fill="#ff2d95" opacity="0.8"/>
  <rect x="420" y="68" width="55" height="15" rx="3" fill="#ff2d95" opacity="0.2"/>
  <text x="427" y="80" font-family="Courier New" font-size="9" fill="#ff2d95" font-weight="bold">CRITICAL</text>
  <rect x="482" y="68" width="45" height="15" rx="3" fill="#ff2d95" opacity="0.1"/>
  <text x="489" y="80" font-family="Courier New" font-size="9" fill="#ff8888">security</text>
  <text x="420" y="100" font-family="Courier New" font-size="11" fill="#fff" font-weight="bold">Missing error handling on fetch</text>
  <text x="420" y="118" font-family="Courier New" font-size="10" fill="#888">No try/catch around await. Unhandled</text>
  <text x="420" y="134" font-family="Courier New" font-size="10" fill="#888">rejection crashes silently in prod.</text>
  <rect x="408" y="156" width="375" height="78" rx="6" fill="#0d0d0a" stroke="#f5c542" stroke-width="1" stroke-opacity="0.5"/>
  <rect x="408" y="156" width="4" height="78" rx="2" fill="#f5c542" opacity="0.8"/>
  <rect x="420" y="166" width="60" height="15" rx="3" fill="#f5c542" opacity="0.15"/>
  <text x="425" y="178" font-family="Courier New" font-size="9" fill="#f5c542" font-weight="bold">WARNING</text>
  <rect x="488" y="166" width="80" height="15" rx="3" fill="#f5c542" opacity="0.08"/>
  <text x="493" y="178" font-family="Courier New" font-size="9" fill="#d4b84a">performance</text>
  <text x="420" y="198" font-family="Courier New" font-size="11" fill="#fff" font-weight="bold">No request caching</text>
  <text x="420" y="216" font-family="Courier New" font-size="10" fill="#888">Same id hits the network every time.</text>
  <rect x="408" y="244" width="375" height="68" rx="6" fill="#090d0d" stroke="#00ffff" stroke-width="1" stroke-opacity="0.3"/>
  <rect x="408" y="244" width="4" height="#00ffff" opacity="0.6"/>
  <rect x="420" y="254" width="30" height="15" rx="3" fill="#00ffff" opacity="0.1"/>
  <text x="425" y="266" font-family="Courier New" font-size="9" fill="#00ffff">INFO</text>
  <rect x="458" y="254" width="75" height="15" rx="3" fill="#00ffff" opacity="0.05"/>
  <text x="463" y="266" font-family="Courier New" font-size="9" fill="#5dd">readability</text>
  <text x="420" y="286" font-family="Courier New" font-size="11" fill="#fff" font-weight="bold">Add JSDoc to public function</text>
  <text x="420" y="304" font-family="Courier New" font-size="10" fill="#888">Improves IDE autocomplete for callers.</text>
  <rect x="408" y="326" width="375" height="2" fill="#00ffff" opacity="0.5"/>
  <rect x="408" y="338" width="375" height="26" rx="4" fill="#0a0a1a"/>
  <text x="420" y="356" font-family="Courier New" font-size="10" fill="#555">3 issues in </text>
  <text x="494" y="356" font-family="Courier New" font-size="10" fill="#00ffff">7.2s</text>
  <text x="518" y="356" font-family="Courier New" font-size="10" fill="#555"> · Gemini 2.5 Flash</text>
  <rect x="636" y="430" width="148" height="30" rx="4" fill="#00ffff" opacity="0.1" stroke="#00ffff" stroke-width="0.8" stroke-opacity="0.5"/>
  <text x="648" y="450" font-family="Courier New" font-size="10" fill="#00ffff">Share review</text>
  <line x1="0" y1="479" x2="200" y2="479" stroke="#00ffff" stroke-width="1" opacity="0.2"/>
  <line x1="600" y1="479" x2="800" y2="479" stroke="#ff2d95" stroke-width="1" opacity="0.2"/>
</svg>